<mxfile host="app.diagrams.net" agent="Mozilla/5.0 (Macintosh; Intel Mac OS X 10_15_7) AppleWebKit/605.1.15 (KHTML, like Gecko) Version/18.4 Safari/605.1.15" version="27.1.1">
  <diagram name="Страница — 1" id="lnzX0_xXZleYZnIcIkIB">
    <mxGraphModel grid="1" page="1" gridSize="10" guides="1" tooltips="1" connect="1" arrows="1" fold="1" pageScale="1" pageWidth="827" pageHeight="1169" math="0" shadow="0">
      <root>
        <mxCell id="0" />
        <mxCell id="1" parent="0" />
        <mxCell id="C4u8l-PWw5S21FuJ_fmW-1" value="Дверь закрыта" style="html=1;whiteSpace=wrap;" vertex="1" parent="1">
          <mxGeometry x="175" y="220" width="110" height="50" as="geometry" />
        </mxCell>
        <mxCell id="C4u8l-PWw5S21FuJ_fmW-2" value="&lt;font style=&quot;font-size: 18px;&quot;&gt;Дверь&lt;/font&gt;" style="text;html=1;align=center;verticalAlign=middle;whiteSpace=wrap;rounded=0;" vertex="1" parent="1">
          <mxGeometry x="200" y="100" width="60" height="30" as="geometry" />
        </mxCell>
        <mxCell id="C4u8l-PWw5S21FuJ_fmW-3" value="Дверь открывается" style="html=1;whiteSpace=wrap;" vertex="1" parent="1">
          <mxGeometry x="340" y="330" width="110" height="50" as="geometry" />
        </mxCell>
        <mxCell id="C4u8l-PWw5S21FuJ_fmW-4" value="" style="endArrow=classic;html=1;rounded=0;exitX=1;exitY=0.5;exitDx=0;exitDy=0;entryX=0.5;entryY=0;entryDx=0;entryDy=0;edgeStyle=orthogonalEdgeStyle;" edge="1" parent="1" source="C4u8l-PWw5S21FuJ_fmW-1" target="C4u8l-PWw5S21FuJ_fmW-3">
          <mxGeometry width="50" height="50" relative="1" as="geometry">
            <mxPoint x="400" y="250" as="sourcePoint" />
            <mxPoint x="450" y="200" as="targetPoint" />
          </mxGeometry>
        </mxCell>
        <mxCell id="ZjSC5qSpypOPc_l6AkcC-48" value="Начать открытие двери" style="edgeLabel;html=1;align=center;verticalAlign=middle;resizable=0;points=[];" connectable="0" vertex="1" parent="C4u8l-PWw5S21FuJ_fmW-4">
          <mxGeometry x="-0.2216" y="2" relative="1" as="geometry">
            <mxPoint x="38" y="27" as="offset" />
          </mxGeometry>
        </mxCell>
        <mxCell id="C4u8l-PWw5S21FuJ_fmW-6" value="Дверь открыта" style="html=1;whiteSpace=wrap;" vertex="1" parent="1">
          <mxGeometry x="175" y="440" width="110" height="50" as="geometry" />
        </mxCell>
        <mxCell id="C4u8l-PWw5S21FuJ_fmW-7" value="" style="endArrow=classic;html=1;rounded=0;exitX=0.5;exitY=1;exitDx=0;exitDy=0;entryX=1;entryY=0.5;entryDx=0;entryDy=0;edgeStyle=orthogonalEdgeStyle;" edge="1" parent="1" source="C4u8l-PWw5S21FuJ_fmW-3" target="C4u8l-PWw5S21FuJ_fmW-6">
          <mxGeometry width="50" height="50" relative="1" as="geometry">
            <mxPoint x="360" y="500" as="sourcePoint" />
            <mxPoint x="470" y="575" as="targetPoint" />
          </mxGeometry>
        </mxCell>
        <mxCell id="ZjSC5qSpypOPc_l6AkcC-49" value="Таймер открытия двери" style="edgeLabel;html=1;align=center;verticalAlign=middle;resizable=0;points=[];" connectable="0" vertex="1" parent="C4u8l-PWw5S21FuJ_fmW-7">
          <mxGeometry x="-0.4732" y="2" relative="1" as="geometry">
            <mxPoint as="offset" />
          </mxGeometry>
        </mxCell>
        <mxCell id="C4u8l-PWw5S21FuJ_fmW-9" value="Дверь закрывается" style="html=1;whiteSpace=wrap;" vertex="1" parent="1">
          <mxGeometry x="20" y="330" width="110" height="50" as="geometry" />
        </mxCell>
        <mxCell id="C4u8l-PWw5S21FuJ_fmW-10" value="" style="endArrow=classic;html=1;rounded=0;exitX=0;exitY=0.5;exitDx=0;exitDy=0;entryX=0.5;entryY=1;entryDx=0;entryDy=0;edgeStyle=orthogonalEdgeStyle;" edge="1" parent="1" source="C4u8l-PWw5S21FuJ_fmW-6" target="C4u8l-PWw5S21FuJ_fmW-9">
          <mxGeometry width="50" height="50" relative="1" as="geometry">
            <mxPoint x="220" y="550" as="sourcePoint" />
            <mxPoint x="110" y="645" as="targetPoint" />
          </mxGeometry>
        </mxCell>
        <mxCell id="ZjSC5qSpypOPc_l6AkcC-50" value="Начать закрытие двери" style="edgeLabel;html=1;align=center;verticalAlign=middle;resizable=0;points=[];" connectable="0" vertex="1" parent="C4u8l-PWw5S21FuJ_fmW-10">
          <mxGeometry x="-0.2923" y="5" relative="1" as="geometry">
            <mxPoint x="-31" y="-45" as="offset" />
          </mxGeometry>
        </mxCell>
        <mxCell id="C4u8l-PWw5S21FuJ_fmW-12" value="" style="endArrow=classic;html=1;rounded=0;exitX=1;exitY=0.5;exitDx=0;exitDy=0;entryX=0;entryY=0.5;entryDx=0;entryDy=0;edgeStyle=orthogonalEdgeStyle;" edge="1" parent="1" source="C4u8l-PWw5S21FuJ_fmW-9" target="C4u8l-PWw5S21FuJ_fmW-3">
          <mxGeometry width="50" height="50" relative="1" as="geometry">
            <mxPoint x="310" y="455" as="sourcePoint" />
            <mxPoint x="210" y="360" as="targetPoint" />
          </mxGeometry>
        </mxCell>
        <mxCell id="ZjSC5qSpypOPc_l6AkcC-53" value="Начать открытие двери" style="edgeLabel;html=1;align=center;verticalAlign=middle;resizable=0;points=[];" connectable="0" vertex="1" parent="C4u8l-PWw5S21FuJ_fmW-12">
          <mxGeometry x="-0.2476" y="3" relative="1" as="geometry">
            <mxPoint x="11" y="3" as="offset" />
          </mxGeometry>
        </mxCell>
        <mxCell id="C4u8l-PWw5S21FuJ_fmW-14" value="" style="endArrow=classic;html=1;rounded=0;exitX=0.5;exitY=0;exitDx=0;exitDy=0;entryX=0;entryY=0.5;entryDx=0;entryDy=0;edgeStyle=orthogonalEdgeStyle;" edge="1" parent="1" source="C4u8l-PWw5S21FuJ_fmW-9" target="C4u8l-PWw5S21FuJ_fmW-1">
          <mxGeometry width="50" height="50" relative="1" as="geometry">
            <mxPoint x="300" y="270" as="sourcePoint" />
            <mxPoint x="410" y="345" as="targetPoint" />
          </mxGeometry>
        </mxCell>
        <mxCell id="ZjSC5qSpypOPc_l6AkcC-51" value="Таймер закрытия двери" style="edgeLabel;html=1;align=center;verticalAlign=middle;resizable=0;points=[];" connectable="0" vertex="1" parent="C4u8l-PWw5S21FuJ_fmW-14">
          <mxGeometry x="0.0857" y="-1" relative="1" as="geometry">
            <mxPoint x="-25" y="24" as="offset" />
          </mxGeometry>
        </mxCell>
        <mxCell id="C4u8l-PWw5S21FuJ_fmW-16" value="" style="endArrow=classic;html=1;rounded=0;entryX=0.5;entryY=0;entryDx=0;entryDy=0;edgeStyle=orthogonalEdgeStyle;" edge="1" parent="1" target="C4u8l-PWw5S21FuJ_fmW-1">
          <mxGeometry width="50" height="50" relative="1" as="geometry">
            <mxPoint x="230" y="160" as="sourcePoint" />
            <mxPoint x="540" y="295" as="targetPoint" />
          </mxGeometry>
        </mxCell>
        <mxCell id="c0O0L560sMd1Wf9MaIBQ-1" value="&lt;font style=&quot;font-size: 18px;&quot;&gt;Кабина&lt;/font&gt;" style="text;html=1;align=center;verticalAlign=middle;whiteSpace=wrap;rounded=0;" vertex="1" parent="1">
          <mxGeometry x="784.5" y="100" width="60" height="30" as="geometry" />
        </mxCell>
        <mxCell id="c0O0L560sMd1Wf9MaIBQ-2" value="Кабина разблокирована" style="html=1;whiteSpace=wrap;" vertex="1" parent="1">
          <mxGeometry x="759.5" y="220" width="110" height="50" as="geometry" />
        </mxCell>
        <mxCell id="c0O0L560sMd1Wf9MaIBQ-4" value="Кабина двигается" style="html=1;whiteSpace=wrap;" vertex="1" parent="1">
          <mxGeometry x="500" y="440" width="110" height="50" as="geometry" />
        </mxCell>
        <mxCell id="c0O0L560sMd1Wf9MaIBQ-14" value="" style="endArrow=classic;html=1;rounded=0;strokeColor=default;align=center;verticalAlign=middle;fontFamily=Helvetica;fontSize=11;fontColor=default;labelBackgroundColor=default;edgeStyle=orthogonalEdgeStyle;entryX=0.5;entryY=0;entryDx=0;entryDy=0;" edge="1" parent="1" target="c0O0L560sMd1Wf9MaIBQ-2">
          <mxGeometry width="50" height="50" relative="1" as="geometry">
            <mxPoint x="814.5" y="160" as="sourcePoint" />
            <mxPoint x="834.5" y="150" as="targetPoint" />
          </mxGeometry>
        </mxCell>
        <mxCell id="c0O0L560sMd1Wf9MaIBQ-366" value="Кабина заблокирована" style="html=1;whiteSpace=wrap;" vertex="1" parent="1">
          <mxGeometry x="759.5" y="440" width="110" height="50" as="geometry" />
        </mxCell>
        <mxCell id="c0O0L560sMd1Wf9MaIBQ-368" value="" style="endArrow=classic;html=1;rounded=0;strokeColor=default;align=center;verticalAlign=middle;fontFamily=Helvetica;fontSize=11;fontColor=default;labelBackgroundColor=default;edgeStyle=orthogonalEdgeStyle;exitX=0;exitY=0.5;exitDx=0;exitDy=0;entryX=0.5;entryY=0;entryDx=0;entryDy=0;" edge="1" parent="1" source="c0O0L560sMd1Wf9MaIBQ-2" target="c0O0L560sMd1Wf9MaIBQ-4">
          <mxGeometry width="50" height="50" relative="1" as="geometry">
            <mxPoint x="632.5" y="380" as="sourcePoint" />
            <mxPoint x="597.5" y="440" as="targetPoint" />
          </mxGeometry>
        </mxCell>
        <mxCell id="ZjSC5qSpypOPc_l6AkcC-44" value="Начать движение" style="edgeLabel;html=1;align=center;verticalAlign=middle;resizable=0;points=[];" connectable="0" vertex="1" parent="c0O0L560sMd1Wf9MaIBQ-368">
          <mxGeometry x="0.0145" y="4" relative="1" as="geometry">
            <mxPoint x="-4" y="81" as="offset" />
          </mxGeometry>
        </mxCell>
        <mxCell id="c0O0L560sMd1Wf9MaIBQ-370" value="" style="endArrow=classic;html=1;rounded=0;strokeColor=default;align=center;verticalAlign=middle;fontFamily=Helvetica;fontSize=11;fontColor=default;labelBackgroundColor=default;edgeStyle=orthogonalEdgeStyle;entryX=0.75;entryY=1;entryDx=0;entryDy=0;exitX=0.75;exitY=0;exitDx=0;exitDy=0;" edge="1" parent="1" source="c0O0L560sMd1Wf9MaIBQ-366" target="c0O0L560sMd1Wf9MaIBQ-2">
          <mxGeometry width="50" height="50" relative="1" as="geometry">
            <mxPoint x="1012.5" y="301" as="sourcePoint" />
            <mxPoint x="952.5" y="485" as="targetPoint" />
            <Array as="points">
              <mxPoint x="842.5" y="290" />
              <mxPoint x="842.5" y="290" />
            </Array>
          </mxGeometry>
        </mxCell>
        <mxCell id="ZjSC5qSpypOPc_l6AkcC-46" value="Разблокировать кабину" style="edgeLabel;html=1;align=center;verticalAlign=middle;resizable=0;points=[];" connectable="0" vertex="1" parent="c0O0L560sMd1Wf9MaIBQ-370">
          <mxGeometry x="0.1231" relative="1" as="geometry">
            <mxPoint x="41" as="offset" />
          </mxGeometry>
        </mxCell>
        <mxCell id="c0O0L560sMd1Wf9MaIBQ-372" value="" style="endArrow=classic;html=1;rounded=0;strokeColor=default;align=center;verticalAlign=middle;fontFamily=Helvetica;fontSize=11;fontColor=default;labelBackgroundColor=default;edgeStyle=orthogonalEdgeStyle;exitX=1;exitY=0.5;exitDx=0;exitDy=0;entryX=0;entryY=0.5;entryDx=0;entryDy=0;" edge="1" parent="1" source="c0O0L560sMd1Wf9MaIBQ-4" target="c0O0L560sMd1Wf9MaIBQ-366">
          <mxGeometry width="50" height="50" relative="1" as="geometry">
            <mxPoint x="652.5" y="465" as="sourcePoint" />
            <mxPoint x="842.5" y="635" as="targetPoint" />
          </mxGeometry>
        </mxCell>
        <mxCell id="ZjSC5qSpypOPc_l6AkcC-45" value="Заблокировать кабину" style="edgeLabel;html=1;align=center;verticalAlign=middle;resizable=0;points=[];" connectable="0" vertex="1" parent="c0O0L560sMd1Wf9MaIBQ-372">
          <mxGeometry x="-0.0841" y="-2" relative="1" as="geometry">
            <mxPoint y="-3" as="offset" />
          </mxGeometry>
        </mxCell>
        <mxCell id="c0O0L560sMd1Wf9MaIBQ-374" value="" style="endArrow=classic;html=1;rounded=0;strokeColor=default;align=center;verticalAlign=middle;fontFamily=Helvetica;fontSize=11;fontColor=default;labelBackgroundColor=default;edgeStyle=orthogonalEdgeStyle;exitX=0.25;exitY=1;exitDx=0;exitDy=0;entryX=0.25;entryY=0;entryDx=0;entryDy=0;" edge="1" parent="1" source="c0O0L560sMd1Wf9MaIBQ-2" target="c0O0L560sMd1Wf9MaIBQ-366">
          <mxGeometry width="50" height="50" relative="1" as="geometry">
            <mxPoint x="872.5" y="360" as="sourcePoint" />
            <mxPoint x="922.5" y="310" as="targetPoint" />
          </mxGeometry>
        </mxCell>
        <mxCell id="ZjSC5qSpypOPc_l6AkcC-59" value="Заблокировать кабину" style="edgeLabel;html=1;align=center;verticalAlign=middle;resizable=0;points=[];" connectable="0" vertex="1" parent="c0O0L560sMd1Wf9MaIBQ-374">
          <mxGeometry x="0.4235" y="3" relative="1" as="geometry">
            <mxPoint x="-37" y="-1" as="offset" />
          </mxGeometry>
        </mxCell>
        <mxCell id="ZjSC5qSpypOPc_l6AkcC-9" value="Ожидание новой задачи" style="rounded=0;whiteSpace=wrap;html=1;" vertex="1" parent="1">
          <mxGeometry x="1390" y="220" width="120" height="60" as="geometry" />
        </mxCell>
        <mxCell id="ZjSC5qSpypOPc_l6AkcC-10" value="Обработка новой задачи" style="rounded=0;whiteSpace=wrap;html=1;" vertex="1" parent="1">
          <mxGeometry x="1390" y="440" width="120" height="60" as="geometry" />
        </mxCell>
        <mxCell id="ZjSC5qSpypOPc_l6AkcC-11" value="Обработка перемещения к этажу" style="rounded=0;whiteSpace=wrap;html=1;" vertex="1" parent="1">
          <mxGeometry x="1050" y="440" width="120" height="60" as="geometry" />
        </mxCell>
        <mxCell id="ZjSC5qSpypOPc_l6AkcC-12" value="Обработка остановки" style="rounded=0;whiteSpace=wrap;html=1;" vertex="1" parent="1">
          <mxGeometry x="1050" y="660" width="120" height="60" as="geometry" />
        </mxCell>
        <mxCell id="ZjSC5qSpypOPc_l6AkcC-13" value="" style="endArrow=classic;html=1;rounded=0;exitX=0;exitY=0.25;exitDx=0;exitDy=0;entryX=1;entryY=0.25;entryDx=0;entryDy=0;edgeStyle=orthogonalEdgeStyle;" edge="1" parent="1" source="ZjSC5qSpypOPc_l6AkcC-10" target="ZjSC5qSpypOPc_l6AkcC-11">
          <mxGeometry width="50" height="50" relative="1" as="geometry">
            <mxPoint x="1140" y="550" as="sourcePoint" />
            <mxPoint x="1190" y="500" as="targetPoint" />
          </mxGeometry>
        </mxCell>
        <mxCell id="ZjSC5qSpypOPc_l6AkcC-37" value="Приступить к перемещению" style="edgeLabel;html=1;align=center;verticalAlign=middle;resizable=0;points=[];" connectable="0" vertex="1" parent="ZjSC5qSpypOPc_l6AkcC-13">
          <mxGeometry x="0.1364" y="-4" relative="1" as="geometry">
            <mxPoint x="15" y="3" as="offset" />
          </mxGeometry>
        </mxCell>
        <mxCell id="ZjSC5qSpypOPc_l6AkcC-15" value="" style="endArrow=classic;html=1;rounded=0;exitX=0.25;exitY=1;exitDx=0;exitDy=0;entryX=0.25;entryY=0;entryDx=0;entryDy=0;edgeStyle=orthogonalEdgeStyle;" edge="1" parent="1" source="ZjSC5qSpypOPc_l6AkcC-11" target="ZjSC5qSpypOPc_l6AkcC-12">
          <mxGeometry width="50" height="50" relative="1" as="geometry">
            <mxPoint x="1420" y="460" as="sourcePoint" />
            <mxPoint x="1200" y="460" as="targetPoint" />
          </mxGeometry>
        </mxCell>
        <mxCell id="ZjSC5qSpypOPc_l6AkcC-62" value="Приступить к остановке" style="edgeLabel;html=1;align=center;verticalAlign=middle;resizable=0;points=[];" connectable="0" vertex="1" parent="ZjSC5qSpypOPc_l6AkcC-15">
          <mxGeometry x="0.45" y="-1" relative="1" as="geometry">
            <mxPoint x="-39" as="offset" />
          </mxGeometry>
        </mxCell>
        <mxCell id="ZjSC5qSpypOPc_l6AkcC-18" value="" style="endArrow=classic;html=1;rounded=0;exitX=0.75;exitY=0;exitDx=0;exitDy=0;entryX=0.75;entryY=1;entryDx=0;entryDy=0;" edge="1" parent="1" source="ZjSC5qSpypOPc_l6AkcC-12" target="ZjSC5qSpypOPc_l6AkcC-11">
          <mxGeometry width="50" height="50" relative="1" as="geometry">
            <mxPoint x="1180" y="570" as="sourcePoint" />
            <mxPoint x="1230" y="520" as="targetPoint" />
          </mxGeometry>
        </mxCell>
        <mxCell id="ZjSC5qSpypOPc_l6AkcC-40" value="Приступить к перемещению" style="edgeLabel;html=1;align=center;verticalAlign=middle;resizable=0;points=[];" connectable="0" vertex="1" parent="ZjSC5qSpypOPc_l6AkcC-18">
          <mxGeometry x="0.05" y="-3" relative="1" as="geometry">
            <mxPoint x="47" y="-25" as="offset" />
          </mxGeometry>
        </mxCell>
        <mxCell id="ZjSC5qSpypOPc_l6AkcC-20" value="" style="endArrow=classic;html=1;rounded=0;exitX=0.25;exitY=1;exitDx=0;exitDy=0;entryX=1;entryY=0.25;entryDx=0;entryDy=0;edgeStyle=orthogonalEdgeStyle;" edge="1" parent="1" source="ZjSC5qSpypOPc_l6AkcC-10" target="ZjSC5qSpypOPc_l6AkcC-12">
          <mxGeometry width="50" height="50" relative="1" as="geometry">
            <mxPoint x="1580" y="580" as="sourcePoint" />
            <mxPoint x="1360" y="580" as="targetPoint" />
          </mxGeometry>
        </mxCell>
        <mxCell id="ZjSC5qSpypOPc_l6AkcC-41" value="Приступить к остановке" style="edgeLabel;html=1;align=center;verticalAlign=middle;resizable=0;points=[];" connectable="0" vertex="1" parent="ZjSC5qSpypOPc_l6AkcC-20">
          <mxGeometry x="0.1914" y="1" relative="1" as="geometry">
            <mxPoint x="-41" y="-1" as="offset" />
          </mxGeometry>
        </mxCell>
        <mxCell id="ZjSC5qSpypOPc_l6AkcC-22" value="" style="endArrow=classic;html=1;rounded=0;exitX=0.5;exitY=1;exitDx=0;exitDy=0;entryX=0.5;entryY=0;entryDx=0;entryDy=0;" edge="1" parent="1" source="ZjSC5qSpypOPc_l6AkcC-9" target="ZjSC5qSpypOPc_l6AkcC-10">
          <mxGeometry width="50" height="50" relative="1" as="geometry">
            <mxPoint x="1350" y="380" as="sourcePoint" />
            <mxPoint x="1400" y="330" as="targetPoint" />
          </mxGeometry>
        </mxCell>
        <mxCell id="ZjSC5qSpypOPc_l6AkcC-52" value="Обработать новую задачу" style="edgeLabel;html=1;align=center;verticalAlign=middle;resizable=0;points=[];" connectable="0" vertex="1" parent="ZjSC5qSpypOPc_l6AkcC-22">
          <mxGeometry x="-0.2" y="2" relative="1" as="geometry">
            <mxPoint x="-2" y="-8" as="offset" />
          </mxGeometry>
        </mxCell>
        <mxCell id="ZjSC5qSpypOPc_l6AkcC-25" value="" style="endArrow=classic;html=1;rounded=0;entryX=0.5;entryY=0;entryDx=0;entryDy=0;" edge="1" parent="1" target="ZjSC5qSpypOPc_l6AkcC-9">
          <mxGeometry width="50" height="50" relative="1" as="geometry">
            <mxPoint x="1450" y="160" as="sourcePoint" />
            <mxPoint x="1449.5" y="190" as="targetPoint" />
          </mxGeometry>
        </mxCell>
        <mxCell id="ZjSC5qSpypOPc_l6AkcC-26" value="&lt;font size=&quot;4&quot;&gt;Контроллер лифта&lt;/font&gt;" style="text;html=1;align=center;verticalAlign=middle;whiteSpace=wrap;rounded=0;" vertex="1" parent="1">
          <mxGeometry x="1420" y="100" width="60" height="30" as="geometry" />
        </mxCell>
        <mxCell id="ZjSC5qSpypOPc_l6AkcC-27" value="" style="endArrow=classic;html=1;rounded=0;exitX=0.5;exitY=1;exitDx=0;exitDy=0;edgeStyle=orthogonalEdgeStyle;entryX=1;entryY=0.5;entryDx=0;entryDy=0;" edge="1" parent="1" source="ZjSC5qSpypOPc_l6AkcC-12" target="ZjSC5qSpypOPc_l6AkcC-9">
          <mxGeometry width="50" height="50" relative="1" as="geometry">
            <mxPoint x="1410" y="800" as="sourcePoint" />
            <mxPoint x="1460" y="750" as="targetPoint" />
            <Array as="points">
              <mxPoint x="1110" y="770" />
              <mxPoint x="1540" y="770" />
              <mxPoint x="1540" y="250" />
            </Array>
          </mxGeometry>
        </mxCell>
        <mxCell id="ZjSC5qSpypOPc_l6AkcC-43" value="Перейти в режим ожидания" style="edgeLabel;html=1;align=center;verticalAlign=middle;resizable=0;points=[];" connectable="0" vertex="1" parent="ZjSC5qSpypOPc_l6AkcC-27">
          <mxGeometry x="-0.5633" y="2" relative="1" as="geometry">
            <mxPoint x="65" y="1" as="offset" />
          </mxGeometry>
        </mxCell>
        <mxCell id="ZjSC5qSpypOPc_l6AkcC-28" value="" style="endArrow=classic;html=1;rounded=0;exitX=0.25;exitY=0;exitDx=0;exitDy=0;entryX=0;entryY=0.5;entryDx=0;entryDy=0;edgeStyle=orthogonalEdgeStyle;" edge="1" parent="1" source="ZjSC5qSpypOPc_l6AkcC-11" target="ZjSC5qSpypOPc_l6AkcC-9">
          <mxGeometry width="50" height="50" relative="1" as="geometry">
            <mxPoint x="1010" y="210" as="sourcePoint" />
            <mxPoint x="1060" y="160" as="targetPoint" />
          </mxGeometry>
        </mxCell>
        <mxCell id="ZjSC5qSpypOPc_l6AkcC-35" value="Перейти в режим ожидания" style="edgeLabel;html=1;align=center;verticalAlign=middle;resizable=0;points=[];" connectable="0" vertex="1" parent="ZjSC5qSpypOPc_l6AkcC-28">
          <mxGeometry x="0.3979" relative="1" as="geometry">
            <mxPoint y="-1" as="offset" />
          </mxGeometry>
        </mxCell>
        <mxCell id="ZjSC5qSpypOPc_l6AkcC-31" value="" style="endArrow=classic;html=1;rounded=0;exitX=1;exitY=0.75;exitDx=0;exitDy=0;entryX=0;entryY=0.75;entryDx=0;entryDy=0;edgeStyle=orthogonalEdgeStyle;" edge="1" parent="1" source="ZjSC5qSpypOPc_l6AkcC-11" target="ZjSC5qSpypOPc_l6AkcC-10">
          <mxGeometry width="50" height="50" relative="1" as="geometry">
            <mxPoint x="1260" y="510" as="sourcePoint" />
            <mxPoint x="1310" y="460" as="targetPoint" />
          </mxGeometry>
        </mxCell>
        <mxCell id="ZjSC5qSpypOPc_l6AkcC-38" value="Обработать новую задачу" style="edgeLabel;html=1;align=center;verticalAlign=middle;resizable=0;points=[];" connectable="0" vertex="1" parent="ZjSC5qSpypOPc_l6AkcC-31">
          <mxGeometry x="-0.1818" relative="1" as="geometry">
            <mxPoint x="20" as="offset" />
          </mxGeometry>
        </mxCell>
        <mxCell id="ZjSC5qSpypOPc_l6AkcC-33" value="" style="endArrow=classic;html=1;rounded=0;exitX=1;exitY=0.75;exitDx=0;exitDy=0;entryX=0.75;entryY=1;entryDx=0;entryDy=0;edgeStyle=orthogonalEdgeStyle;" edge="1" parent="1" source="ZjSC5qSpypOPc_l6AkcC-12" target="ZjSC5qSpypOPc_l6AkcC-10">
          <mxGeometry width="50" height="50" relative="1" as="geometry">
            <mxPoint x="1300" y="610" as="sourcePoint" />
            <mxPoint x="1350" y="560" as="targetPoint" />
          </mxGeometry>
        </mxCell>
        <mxCell id="ZjSC5qSpypOPc_l6AkcC-42" value="Обработать новую задачу" style="edgeLabel;html=1;align=center;verticalAlign=middle;resizable=0;points=[];" connectable="0" vertex="1" parent="ZjSC5qSpypOPc_l6AkcC-33">
          <mxGeometry x="-0.0486" y="1" relative="1" as="geometry">
            <mxPoint x="-85" as="offset" />
          </mxGeometry>
        </mxCell>
        <mxCell id="ZjSC5qSpypOPc_l6AkcC-54" value="" style="endArrow=classic;html=1;rounded=0;entryX=0;entryY=0.75;entryDx=0;entryDy=0;" edge="1" parent="1" target="ZjSC5qSpypOPc_l6AkcC-11">
          <mxGeometry width="50" height="50" relative="1" as="geometry">
            <mxPoint x="1050" y="455" as="sourcePoint" />
            <mxPoint x="990" y="400" as="targetPoint" />
            <Array as="points">
              <mxPoint x="1020" y="470" />
            </Array>
          </mxGeometry>
        </mxCell>
        <mxCell id="ZjSC5qSpypOPc_l6AkcC-55" value="Продолжить движение" style="edgeLabel;html=1;align=center;verticalAlign=middle;resizable=0;points=[];" connectable="0" vertex="1" parent="ZjSC5qSpypOPc_l6AkcC-54">
          <mxGeometry x="-0.6267" y="3" relative="1" as="geometry">
            <mxPoint x="-70" y="7" as="offset" />
          </mxGeometry>
        </mxCell>
        <mxCell id="ZjSC5qSpypOPc_l6AkcC-57" value="" style="endArrow=classic;html=1;rounded=0;exitX=0.75;exitY=1;exitDx=0;exitDy=0;entryX=0.25;entryY=1;entryDx=0;entryDy=0;" edge="1" parent="1" source="c0O0L560sMd1Wf9MaIBQ-366" target="c0O0L560sMd1Wf9MaIBQ-366">
          <mxGeometry width="50" height="50" relative="1" as="geometry">
            <mxPoint x="632.5" y="670" as="sourcePoint" />
            <mxPoint x="682.5" y="620" as="targetPoint" />
            <Array as="points">
              <mxPoint x="814.5" y="530" />
            </Array>
          </mxGeometry>
        </mxCell>
        <mxCell id="ZjSC5qSpypOPc_l6AkcC-58" value="Заблокировать кабину" style="edgeLabel;html=1;align=center;verticalAlign=middle;resizable=0;points=[];" connectable="0" vertex="1" parent="ZjSC5qSpypOPc_l6AkcC-57">
          <mxGeometry x="0.4912" y="-1" relative="1" as="geometry">
            <mxPoint x="-1" y="20" as="offset" />
          </mxGeometry>
        </mxCell>
        <mxCell id="ZjSC5qSpypOPc_l6AkcC-60" value="" style="endArrow=classic;html=1;rounded=0;exitX=0.75;exitY=1;exitDx=0;exitDy=0;entryX=0.25;entryY=1;entryDx=0;entryDy=0;" edge="1" parent="1" source="c0O0L560sMd1Wf9MaIBQ-4" target="c0O0L560sMd1Wf9MaIBQ-4">
          <mxGeometry width="50" height="50" relative="1" as="geometry">
            <mxPoint x="625" y="490" as="sourcePoint" />
            <mxPoint x="570" y="490" as="targetPoint" />
            <Array as="points">
              <mxPoint x="550" y="530" />
            </Array>
          </mxGeometry>
        </mxCell>
        <mxCell id="ZjSC5qSpypOPc_l6AkcC-61" value="Продолжить движение" style="edgeLabel;html=1;align=center;verticalAlign=middle;resizable=0;points=[];" connectable="0" vertex="1" parent="ZjSC5qSpypOPc_l6AkcC-60">
          <mxGeometry x="-0.3234" y="-1" relative="1" as="geometry">
            <mxPoint x="-11" y="15" as="offset" />
          </mxGeometry>
        </mxCell>
        <mxCell id="ZjSC5qSpypOPc_l6AkcC-63" value="" style="endArrow=classic;html=1;rounded=0;exitX=0;exitY=0.25;exitDx=0;exitDy=0;entryX=0;entryY=0.75;entryDx=0;entryDy=0;" edge="1" parent="1" source="ZjSC5qSpypOPc_l6AkcC-12" target="ZjSC5qSpypOPc_l6AkcC-12">
          <mxGeometry width="50" height="50" relative="1" as="geometry">
            <mxPoint x="810" y="730" as="sourcePoint" />
            <mxPoint x="860" y="680" as="targetPoint" />
            <Array as="points">
              <mxPoint x="1020" y="690" />
            </Array>
          </mxGeometry>
        </mxCell>
        <mxCell id="ZjSC5qSpypOPc_l6AkcC-64" value="Приступить к остановке" style="edgeLabel;html=1;align=center;verticalAlign=middle;resizable=0;points=[];" connectable="0" vertex="1" parent="ZjSC5qSpypOPc_l6AkcC-63">
          <mxGeometry x="-0.3727" relative="1" as="geometry">
            <mxPoint x="-61" y="6" as="offset" />
          </mxGeometry>
        </mxCell>
      </root>
    </mxGraphModel>
  </diagram>
</mxfile>
